<svg width="32" height="32" viewBox="0 0 32 32" fill="none" xmlns="http://www.w3.org/2000/svg">
<path d="M15.9947 27.9999C13.3298 27.9999 11.1094 27.0831 9.33335 25.2493C7.55558 23.4164 6.66669 21.1346 6.66669 18.4039C6.66669 17.1951 6.94224 15.9773 7.49335 14.7506C8.04269 13.5239 8.73024 12.3471 9.55602 11.2199C10.3827 10.0919 11.2742 9.02839 12.2307 8.02928C13.188 7.03105 14.0769 6.16216 14.8974 5.42261C15.0574 5.2795 15.232 5.16883 15.4214 5.09061C15.6098 5.01328 15.8027 4.97461 16 4.97461C16.1974 4.97461 16.3902 5.01328 16.5787 5.09061C16.7671 5.16883 16.9418 5.27994 17.1027 5.42394C17.9231 6.16172 18.812 7.03016 19.7694 8.02928C20.7267 9.02839 21.6182 10.0919 22.444 11.2199C23.2698 12.3471 23.9578 13.5239 24.508 14.7506C25.0582 15.9773 25.3333 17.1951 25.3333 18.4039C25.3333 21.1346 24.4431 23.4164 22.6627 25.2493C20.8822 27.0822 18.6587 27.9991 15.9947 27.9999ZM16 26.6666C18.3111 26.6666 20.2222 25.8831 21.7333 24.3159C23.2445 22.7488 24 20.7768 24 18.3999C24 16.7777 23.3276 14.9444 21.9827 12.8999C20.6378 10.8555 18.6436 8.62217 16 6.19994C13.3556 8.62217 11.3614 10.8555 10.0174 12.8999C8.67335 14.9444 8.00091 16.7777 8.00002 18.3999C8.00002 20.7777 8.75558 22.7502 10.2667 24.3173C11.7778 25.8844 13.6889 26.6675 16 26.6666ZM16.2894 24.9226C16.4876 24.9004 16.6431 24.8319 16.756 24.7173C16.8671 24.6035 16.9227 24.4657 16.9227 24.3039C16.9227 24.1146 16.8587 23.9684 16.7307 23.8653C16.6036 23.7622 16.4405 23.7217 16.2414 23.7439C15.3302 23.8106 14.3125 23.5262 13.188 22.8906C12.0627 22.2559 11.3667 21.1937 11.1 19.7039C11.0556 19.4942 10.9818 19.3373 10.8787 19.2333C10.7756 19.1293 10.644 19.0773 10.484 19.0773C10.3098 19.0773 10.1614 19.1426 10.0387 19.2733C9.91513 19.4039 9.87824 19.5995 9.92802 19.8599C10.272 21.7106 11.1267 23.0351 12.492 23.8333C13.8582 24.6315 15.124 24.9946 16.2894 24.9226Z" fill="white"/>
</svg>
