<svg width="32" height="32" viewBox="0 0 32 32" fill="none" xmlns="http://www.w3.org/2000/svg">
<path d="M16 25.2306C14.8293 25.2306 13.7271 25.0275 12.6933 24.6213C11.6595 24.2151 10.7293 23.6569 9.90266 22.9466L7.13866 25.6773C7.01955 25.8017 6.86799 25.864 6.68399 25.864C6.49999 25.864 6.34533 25.8017 6.21999 25.6773C6.09555 25.5529 6.03333 25.3982 6.03333 25.2133C6.03333 25.0284 6.09555 24.8773 6.21999 24.76L8.95066 22.028C8.23955 21.2022 7.68132 20.2666 7.27599 19.2213C6.86977 18.176 6.66666 17.068 6.66666 15.8973C6.66666 13.292 7.57066 11.0849 9.37866 9.27597C11.1867 7.46708 13.3938 6.56308 16 6.56397H25.3333V15.8973C25.3333 18.5026 24.4293 20.7097 22.6213 22.5186C20.8133 24.3275 18.6062 25.2315 16 25.2306ZM16 23.8973C18.2222 23.8973 20.1111 23.1195 21.6667 21.564C23.2222 20.0084 24 18.1195 24 15.8973V7.8973H16C13.7778 7.8973 11.8889 8.67508 10.3333 10.2306C8.77777 11.7862 7.99999 13.6751 7.99999 15.8973C7.99999 16.884 8.16755 17.8186 8.50266 18.7013C8.83777 19.584 9.3071 20.3733 9.91066 21.0693L16.8867 14.092C17.0058 13.9675 17.1573 13.9053 17.3413 13.9053C17.5253 13.9053 17.6827 13.9702 17.8133 14.1C17.9555 14.2422 18.0267 14.3982 18.0267 14.568C18.0267 14.7377 17.9529 14.8964 17.8053 15.044L10.8267 21.9946C11.5227 22.5982 12.312 23.0662 13.1947 23.3986C14.0773 23.7311 15.012 23.8973 15.9987 23.8973H16Z" fill="white"/>
</svg>
