<svg width="32" height="32" viewBox="0 0 32 32" fill="none" xmlns="http://www.w3.org/2000/svg">
<path d="M7.428 25.9494C7.12933 25.9494 6.87511 25.8445 6.66533 25.6348C6.45556 25.425 6.35067 25.1708 6.35067 24.8721C6.35067 24.5725 6.45556 24.3183 6.66533 24.1094C6.87511 23.8997 7.12933 23.7948 7.428 23.7948H10.3827L6.93067 12.5081C6.34756 12.2254 5.88311 11.8219 5.53733 11.2974C5.19067 10.773 5.01733 10.1694 5.01733 9.48677C5.01733 8.5641 5.34222 7.77788 5.992 7.1281C6.64178 6.47921 7.42844 6.15477 8.352 6.15477C9.16711 6.15477 9.86667 6.40454 10.4507 6.9041C11.0338 7.40366 11.4249 8.04232 11.624 8.8201H16.504V6.8201C16.504 6.63077 16.568 6.47254 16.696 6.34543C16.8231 6.21743 16.9818 6.15343 17.172 6.15343C17.3204 6.15343 17.4507 6.19788 17.5627 6.28677C17.6747 6.37566 17.7458 6.4921 17.776 6.6361V6.9961L20.1973 4.75877C20.3804 4.57566 20.5849 4.46499 20.8107 4.42677C21.0373 4.38854 21.2587 4.42766 21.4747 4.5441L26.52 6.8921C26.6844 6.97477 26.808 7.09254 26.8907 7.24543C26.9733 7.39832 26.9764 7.55388 26.9 7.7121C26.8182 7.87654 26.7009 7.98054 26.548 8.0241C26.3942 8.06854 26.2382 8.0521 26.08 7.97477L21.0227 5.6201L17.8387 8.55343V10.4201L21.0227 13.2868L26.08 10.9334C26.2382 10.8561 26.3951 10.8405 26.5507 10.8868C26.7062 10.933 26.8227 11.0357 26.9 11.1948C26.9818 11.3592 26.98 11.5165 26.8947 11.6668C26.8093 11.8179 26.6849 11.9343 26.5213 12.0161L21.4747 14.3801C21.2587 14.4957 21.0378 14.5299 20.812 14.4828C20.5853 14.4365 20.3809 14.3303 20.1987 14.1641L17.7773 11.9801V12.3388C17.7462 12.4721 17.6751 12.5859 17.564 12.6801C17.4511 12.7734 17.3204 12.8201 17.172 12.8201C16.9818 12.8201 16.8231 12.7565 16.696 12.6294C16.5689 12.5023 16.5053 12.3437 16.5053 12.1534V10.1534H11.6227C11.556 10.4512 11.4453 10.7463 11.2907 11.0388C11.136 11.3312 10.9667 11.5748 10.7827 11.7694L17.244 23.7961H21.2747C21.5733 23.7961 21.8276 23.9005 22.0373 24.1094C22.2462 24.3183 22.3507 24.5725 22.3507 24.8721C22.3507 25.1708 22.2462 25.425 22.0373 25.6348C21.8276 25.8445 21.5733 25.9494 21.2747 25.9494H7.428ZM8.35067 11.4868C8.9 11.4868 9.37111 11.2908 9.764 10.8988C10.1551 10.5068 10.3507 10.0361 10.3507 9.48677C10.3507 8.93832 10.1551 8.4681 9.764 8.0761C9.37111 7.68321 8.9 7.48677 8.35067 7.48677C7.80222 7.48677 7.332 7.68321 6.94 8.0761C6.54711 8.4681 6.35067 8.93832 6.35067 9.48677C6.35067 10.0361 6.54711 10.5068 6.94 10.8988C7.332 11.2908 7.80222 11.4868 8.35067 11.4868ZM11.7827 23.7948H15.716L9.67467 12.5641C9.53778 12.6494 9.34444 12.7223 9.09467 12.7828C8.84578 12.8423 8.61867 12.8548 8.41333 12.8201L11.7827 23.7948Z" fill="white"/>
</svg>
