<svg width="24" height="32" viewBox="0 0 24 32" fill="none" xmlns="http://www.w3.org/2000/svg">
<path d="M7.5 26.6666V22.9226H5.5V21.5893H7.5V17.9493H5.5V16.6159H7.5V5.33325H13.77C15.0887 5.33325 16.2067 5.94436 17.124 7.16659C18.0413 8.38881 18.5 9.87859 18.5 11.6359C18.5 13.3933 18.0413 14.8848 17.124 16.1106C16.2067 17.3364 15.0883 17.9493 13.769 17.9493H8.5V21.5893H12.5V22.9226H8.5V26.6666H7.5ZM8.5 16.6159H13.77C14.8 16.6159 15.679 16.1301 16.407 15.1586C17.1357 14.187 17.5 13.0141 17.5 11.6399C17.5 10.2666 17.1357 9.09414 16.407 8.12259C15.679 7.15192 14.8 6.66659 13.77 6.66659H8.5V16.6159Z" fill="white"/>
</svg>
