<svg width="11" height="6" viewBox="0 0 11 6" fill="none" xmlns="http://www.w3.org/2000/svg">
<g clip-path="url(#clip0_328_6847)">
<path d="M5.54196 5.38599C5.44365 5.38599 5.35323 5.36991 5.2707 5.33774C5.18757 5.30558 5.10655 5.24975 5.02767 5.17026L1.03258 1.17608C0.947624 1.09113 0.902112 0.986751 0.896043 0.862957C0.889975 0.739163 0.935487 0.628719 1.03258 0.531626C1.12967 0.434533 1.23708 0.385986 1.35481 0.385986C1.47253 0.385986 1.57994 0.434533 1.67704 0.531626L5.54196 4.39655L9.40688 0.531626C9.49183 0.446669 9.59621 0.401157 9.72 0.395089C9.84379 0.389021 9.95424 0.434533 10.0513 0.531626C10.1484 0.628719 10.197 0.736129 10.197 0.853854C10.197 0.97158 10.1484 1.07899 10.0513 1.17608L6.05625 5.17026C5.97736 5.24975 5.89635 5.30558 5.81321 5.33774C5.73068 5.36991 5.64026 5.38599 5.54196 5.38599Z" fill="black"/>
</g>
<defs>
<clipPath id="clip0_328_6847">
<rect width="11" height="6" fill="white"/>
</clipPath>
</defs>
</svg>
