<svg width="773" height="120" viewBox="0 0 773 120" fill="none" xmlns="http://www.w3.org/2000/svg">
<g opacity="0.72" filter="url(#filter0_b_602_773)">
<mask id="path-1-outside-1_602_773" maskUnits="userSpaceOnUse" x="-1.19249e-08" y="-1.19249e-08" width="773" height="139" fill="black">
<rect fill="white" x="-1.19249e-08" y="-1.19249e-08" width="773" height="139"/>
<path d="M39.6707 1.11043L54.8628 1.11043L54.8627 135.782L39.6707 135.782L39.6707 58.9376L16.1921 58.9376L16.1921 135.782L1 135.782L1.00001 1.11043L16.1921 1.11043L16.1921 43.9957L39.6707 43.9957L39.6707 1.11043Z"/>
<path d="M127.179 135.782L124.22 109.973L97.1896 109.973L94.0329 135.782L78.8408 135.782L94.4275 1.11043L126.785 1.11043L142.569 135.782L127.179 135.782ZM98.7681 96.3895L122.641 96.3895L113.171 16.0524L108.041 16.0524L98.7681 96.3895Z"/>
<path d="M153.938 1.11043L219.244 1.11045L219.244 16.0524L194.187 16.0524L194.187 135.782L178.995 135.782L178.995 16.0524L153.938 16.0524L153.938 1.11043Z"/>
<path d="M282.603 118.511C281.683 123.427 279.512 127.567 276.092 130.931C272.804 134.165 268.003 135.782 261.69 135.782L251.035 135.782L251.035 120.84L261.69 120.84C263.4 120.84 264.715 120.452 265.636 119.676C266.556 118.899 267.148 117.994 267.411 116.959L271.949 92.8966L258.336 92.8966L237.027 1.11045L252.614 1.11045L269.187 77.9546L274.514 77.9546L288.72 1.11045L304.109 1.11045L282.603 118.511Z"/>
<path d="M375.588 72.3272C375.588 76.0788 374.996 79.313 373.813 82.0297C372.76 84.6171 371.248 86.7516 369.275 88.4334C367.302 89.9858 365 91.1501 362.369 91.9263C359.87 92.7025 357.174 93.0906 354.28 93.0906L340.272 93.0906L340.272 135.782L325.08 135.782L325.08 1.11045L354.28 1.11045C358.095 1.11045 361.317 1.6926 363.948 2.85689C366.71 3.89183 368.946 5.37957 370.656 7.32007C372.366 9.13121 373.615 11.3305 374.405 13.9178C375.194 16.3758 375.588 19.0278 375.588 21.8739L375.588 72.3272ZM360.199 21.8739C360.199 20.3215 359.739 18.9631 358.818 17.7988C358.029 16.6345 356.516 16.0524 354.28 16.0524L340.272 16.0524L340.272 78.1487L354.28 78.1487C355.99 78.1487 357.371 77.7606 358.423 76.9844C359.607 76.0788 360.199 74.5264 360.199 72.3272L360.199 21.8739Z"/>
<path d="M443.359 135.782L440.4 109.973L413.37 109.973L410.213 135.782L395.021 135.782L410.608 1.11045L442.965 1.11045L458.749 135.782L443.359 135.782ZM414.948 96.3895L438.821 96.3895L429.351 16.0524L424.221 16.0524L414.948 96.3895Z"/>
<path d="M535.652 1.11045L535.652 135.782L520.46 135.782L520.46 16.0524L503.098 16.0524L498.56 117.153C498.297 123.363 496.916 128.02 494.417 131.125C492.049 134.229 487.708 135.782 481.395 135.782L473.108 135.782L473.108 120.84L479.422 120.84C481 120.84 481.987 120.646 482.381 120.258C482.908 119.74 483.236 118.705 483.368 117.153L488.498 1.11045L535.652 1.11045Z"/>
<path d="M613.932 115.018C613.932 118.77 613.34 122.004 612.157 124.721C611.104 127.308 609.592 129.443 607.619 131.125C605.777 132.677 603.541 133.841 600.911 134.618C598.411 135.394 595.715 135.782 592.821 135.782L563.226 135.782L563.226 1.11047L578.418 1.11047L578.418 43.8017L592.821 43.8017C596.636 43.8017 599.858 44.3838 602.489 45.5481C605.251 46.5831 607.421 48.0708 609 50.0113C610.71 51.8224 611.959 54.0217 612.748 56.609C613.538 59.067 613.932 61.719 613.932 64.5651L613.932 115.018ZM598.74 64.5651C598.74 62.8834 598.28 61.525 597.359 60.4901C596.57 59.3258 595.057 58.7436 592.821 58.7436L578.418 58.7436L578.418 120.84L592.821 120.84C594.531 120.84 595.912 120.452 596.965 119.676C598.148 118.77 598.74 117.218 598.74 115.018L598.74 64.5651Z"/>
<path d="M677.811 43.9957L677.811 1.11047L693.003 1.11047L693.003 135.782L677.811 135.782L677.811 58.9377L654.332 58.9377L654.332 135.782L639.14 135.782L639.14 1.11047L654.332 1.11047L654.332 43.9957L677.811 43.9957Z"/>
<path d="M750.889 0.999994C754.703 0.999994 757.926 1.58216 760.557 2.74647C763.319 3.78141 765.489 5.26913 767.067 7.20963C768.777 9.02078 770.027 11.22 770.816 13.8074C771.605 16.2654 772 18.9174 772 21.7635L772 117.237C772 120.083 771.605 122.799 770.816 125.387C770.027 127.845 768.777 130.044 767.067 131.984C765.489 133.796 763.319 135.283 760.557 136.448C757.926 137.483 754.703 138 750.889 138L739.248 138C735.434 138 732.146 137.483 729.383 136.448C726.753 135.283 724.582 133.796 722.872 131.984C721.294 130.044 720.11 127.845 719.321 125.387C718.532 122.799 718.137 120.083 718.137 117.237L718.137 21.7635C718.137 18.9174 718.532 16.2654 719.321 13.8074C720.11 11.22 721.294 9.02078 722.872 7.20963C724.582 5.26913 726.753 3.78141 729.383 2.74647C732.146 1.58216 735.434 0.999993 739.248 0.999994L750.889 0.999994ZM750.889 123.058C752.993 123.058 754.506 122.476 755.427 121.312C756.348 120.147 756.808 118.789 756.808 117.237L756.808 21.7635C756.808 20.2111 756.348 18.8527 755.427 17.6884C754.506 16.5241 752.993 15.9419 750.889 15.9419L739.248 15.9419C737.012 15.9419 735.434 16.5241 734.513 17.6884C733.724 18.8527 733.329 20.2111 733.329 21.7635L733.329 117.237C733.329 118.789 733.724 120.147 734.513 121.312C735.434 122.476 737.012 123.058 739.248 123.058L750.889 123.058Z"/>
</mask>
<path d="M39.6707 1.11043L54.8628 1.11043L54.8627 135.782L39.6707 135.782L39.6707 58.9376L16.1921 58.9376L16.1921 135.782L1 135.782L1.00001 1.11043L16.1921 1.11043L16.1921 43.9957L39.6707 43.9957L39.6707 1.11043Z" fill="white" fill-opacity="0.3"/>
<path d="M127.179 135.782L124.22 109.973L97.1896 109.973L94.0329 135.782L78.8408 135.782L94.4275 1.11043L126.785 1.11043L142.569 135.782L127.179 135.782ZM98.7681 96.3895L122.641 96.3895L113.171 16.0524L108.041 16.0524L98.7681 96.3895Z" fill="white" fill-opacity="0.3"/>
<path d="M153.938 1.11043L219.244 1.11045L219.244 16.0524L194.187 16.0524L194.187 135.782L178.995 135.782L178.995 16.0524L153.938 16.0524L153.938 1.11043Z" fill="white" fill-opacity="0.3"/>
<path d="M282.603 118.511C281.683 123.427 279.512 127.567 276.092 130.931C272.804 134.165 268.003 135.782 261.69 135.782L251.035 135.782L251.035 120.84L261.69 120.84C263.4 120.84 264.715 120.452 265.636 119.676C266.556 118.899 267.148 117.994 267.411 116.959L271.949 92.8966L258.336 92.8966L237.027 1.11045L252.614 1.11045L269.187 77.9546L274.514 77.9546L288.72 1.11045L304.109 1.11045L282.603 118.511Z" fill="white" fill-opacity="0.3"/>
<path d="M375.588 72.3272C375.588 76.0788 374.996 79.313 373.813 82.0297C372.76 84.6171 371.248 86.7516 369.275 88.4334C367.302 89.9858 365 91.1501 362.369 91.9263C359.87 92.7025 357.174 93.0906 354.28 93.0906L340.272 93.0906L340.272 135.782L325.08 135.782L325.08 1.11045L354.28 1.11045C358.095 1.11045 361.317 1.6926 363.948 2.85689C366.71 3.89183 368.946 5.37957 370.656 7.32007C372.366 9.13121 373.615 11.3305 374.405 13.9178C375.194 16.3758 375.588 19.0278 375.588 21.8739L375.588 72.3272ZM360.199 21.8739C360.199 20.3215 359.739 18.9631 358.818 17.7988C358.029 16.6345 356.516 16.0524 354.28 16.0524L340.272 16.0524L340.272 78.1487L354.28 78.1487C355.99 78.1487 357.371 77.7606 358.423 76.9844C359.607 76.0788 360.199 74.5264 360.199 72.3272L360.199 21.8739Z" fill="white" fill-opacity="0.3"/>
<path d="M443.359 135.782L440.4 109.973L413.37 109.973L410.213 135.782L395.021 135.782L410.608 1.11045L442.965 1.11045L458.749 135.782L443.359 135.782ZM414.948 96.3895L438.821 96.3895L429.351 16.0524L424.221 16.0524L414.948 96.3895Z" fill="white" fill-opacity="0.3"/>
<path d="M535.652 1.11045L535.652 135.782L520.46 135.782L520.46 16.0524L503.098 16.0524L498.56 117.153C498.297 123.363 496.916 128.02 494.417 131.125C492.049 134.229 487.708 135.782 481.395 135.782L473.108 135.782L473.108 120.84L479.422 120.84C481 120.84 481.987 120.646 482.381 120.258C482.908 119.74 483.236 118.705 483.368 117.153L488.498 1.11045L535.652 1.11045Z" fill="white" fill-opacity="0.3"/>
<path d="M613.932 115.018C613.932 118.77 613.34 122.004 612.157 124.721C611.104 127.308 609.592 129.443 607.619 131.125C605.777 132.677 603.541 133.841 600.911 134.618C598.411 135.394 595.715 135.782 592.821 135.782L563.226 135.782L563.226 1.11047L578.418 1.11047L578.418 43.8017L592.821 43.8017C596.636 43.8017 599.858 44.3838 602.489 45.5481C605.251 46.5831 607.421 48.0708 609 50.0113C610.71 51.8224 611.959 54.0217 612.748 56.609C613.538 59.067 613.932 61.719 613.932 64.5651L613.932 115.018ZM598.74 64.5651C598.74 62.8834 598.28 61.525 597.359 60.4901C596.57 59.3258 595.057 58.7436 592.821 58.7436L578.418 58.7436L578.418 120.84L592.821 120.84C594.531 120.84 595.912 120.452 596.965 119.676C598.148 118.77 598.74 117.218 598.74 115.018L598.74 64.5651Z" fill="white" fill-opacity="0.3"/>
<path d="M677.811 43.9957L677.811 1.11047L693.003 1.11047L693.003 135.782L677.811 135.782L677.811 58.9377L654.332 58.9377L654.332 135.782L639.14 135.782L639.14 1.11047L654.332 1.11047L654.332 43.9957L677.811 43.9957Z" fill="white" fill-opacity="0.3"/>
<path d="M750.889 0.999994C754.703 0.999994 757.926 1.58216 760.557 2.74647C763.319 3.78141 765.489 5.26913 767.067 7.20963C768.777 9.02078 770.027 11.22 770.816 13.8074C771.605 16.2654 772 18.9174 772 21.7635L772 117.237C772 120.083 771.605 122.799 770.816 125.387C770.027 127.845 768.777 130.044 767.067 131.984C765.489 133.796 763.319 135.283 760.557 136.448C757.926 137.483 754.703 138 750.889 138L739.248 138C735.434 138 732.146 137.483 729.383 136.448C726.753 135.283 724.582 133.796 722.872 131.984C721.294 130.044 720.11 127.845 719.321 125.387C718.532 122.799 718.137 120.083 718.137 117.237L718.137 21.7635C718.137 18.9174 718.532 16.2654 719.321 13.8074C720.11 11.22 721.294 9.02078 722.872 7.20963C724.582 5.26913 726.753 3.78141 729.383 2.74647C732.146 1.58216 735.434 0.999993 739.248 0.999994L750.889 0.999994ZM750.889 123.058C752.993 123.058 754.506 122.476 755.427 121.312C756.348 120.147 756.808 118.789 756.808 117.237L756.808 21.7635C756.808 20.2111 756.348 18.8527 755.427 17.6884C754.506 16.5241 752.993 15.9419 750.889 15.9419L739.248 15.9419C737.012 15.9419 735.434 16.5241 734.513 17.6884C733.724 18.8527 733.329 20.2111 733.329 21.7635L733.329 117.237C733.329 118.789 733.724 120.147 734.513 121.312C735.434 122.476 737.012 123.058 739.248 123.058L750.889 123.058Z" fill="white" fill-opacity="0.3"/>
<path d="M39.6707 1.11043L54.8628 1.11043L54.8627 135.782L39.6707 135.782L39.6707 58.9376L16.1921 58.9376L16.1921 135.782L1 135.782L1.00001 1.11043L16.1921 1.11043L16.1921 43.9957L39.6707 43.9957L39.6707 1.11043Z" stroke="white" stroke-width="2" mask="url(#path-1-outside-1_602_773)"/>
<path d="M127.179 135.782L124.22 109.973L97.1896 109.973L94.0329 135.782L78.8408 135.782L94.4275 1.11043L126.785 1.11043L142.569 135.782L127.179 135.782ZM98.7681 96.3895L122.641 96.3895L113.171 16.0524L108.041 16.0524L98.7681 96.3895Z" stroke="white" stroke-width="2" mask="url(#path-1-outside-1_602_773)"/>
<path d="M153.938 1.11043L219.244 1.11045L219.244 16.0524L194.187 16.0524L194.187 135.782L178.995 135.782L178.995 16.0524L153.938 16.0524L153.938 1.11043Z" stroke="white" stroke-width="2" mask="url(#path-1-outside-1_602_773)"/>
<path d="M282.603 118.511C281.683 123.427 279.512 127.567 276.092 130.931C272.804 134.165 268.003 135.782 261.69 135.782L251.035 135.782L251.035 120.84L261.69 120.84C263.4 120.84 264.715 120.452 265.636 119.676C266.556 118.899 267.148 117.994 267.411 116.959L271.949 92.8966L258.336 92.8966L237.027 1.11045L252.614 1.11045L269.187 77.9546L274.514 77.9546L288.72 1.11045L304.109 1.11045L282.603 118.511Z" stroke="white" stroke-width="2" mask="url(#path-1-outside-1_602_773)"/>
<path d="M375.588 72.3272C375.588 76.0788 374.996 79.313 373.813 82.0297C372.76 84.6171 371.248 86.7516 369.275 88.4334C367.302 89.9858 365 91.1501 362.369 91.9263C359.87 92.7025 357.174 93.0906 354.28 93.0906L340.272 93.0906L340.272 135.782L325.08 135.782L325.08 1.11045L354.28 1.11045C358.095 1.11045 361.317 1.6926 363.948 2.85689C366.71 3.89183 368.946 5.37957 370.656 7.32007C372.366 9.13121 373.615 11.3305 374.405 13.9178C375.194 16.3758 375.588 19.0278 375.588 21.8739L375.588 72.3272ZM360.199 21.8739C360.199 20.3215 359.739 18.9631 358.818 17.7988C358.029 16.6345 356.516 16.0524 354.28 16.0524L340.272 16.0524L340.272 78.1487L354.28 78.1487C355.99 78.1487 357.371 77.7606 358.423 76.9844C359.607 76.0788 360.199 74.5264 360.199 72.3272L360.199 21.8739Z" stroke="white" stroke-width="2" mask="url(#path-1-outside-1_602_773)"/>
<path d="M443.359 135.782L440.4 109.973L413.37 109.973L410.213 135.782L395.021 135.782L410.608 1.11045L442.965 1.11045L458.749 135.782L443.359 135.782ZM414.948 96.3895L438.821 96.3895L429.351 16.0524L424.221 16.0524L414.948 96.3895Z" stroke="white" stroke-width="2" mask="url(#path-1-outside-1_602_773)"/>
<path d="M535.652 1.11045L535.652 135.782L520.46 135.782L520.46 16.0524L503.098 16.0524L498.56 117.153C498.297 123.363 496.916 128.02 494.417 131.125C492.049 134.229 487.708 135.782 481.395 135.782L473.108 135.782L473.108 120.84L479.422 120.84C481 120.84 481.987 120.646 482.381 120.258C482.908 119.74 483.236 118.705 483.368 117.153L488.498 1.11045L535.652 1.11045Z" stroke="white" stroke-width="2" mask="url(#path-1-outside-1_602_773)"/>
<path d="M613.932 115.018C613.932 118.77 613.34 122.004 612.157 124.721C611.104 127.308 609.592 129.443 607.619 131.125C605.777 132.677 603.541 133.841 600.911 134.618C598.411 135.394 595.715 135.782 592.821 135.782L563.226 135.782L563.226 1.11047L578.418 1.11047L578.418 43.8017L592.821 43.8017C596.636 43.8017 599.858 44.3838 602.489 45.5481C605.251 46.5831 607.421 48.0708 609 50.0113C610.71 51.8224 611.959 54.0217 612.748 56.609C613.538 59.067 613.932 61.719 613.932 64.5651L613.932 115.018ZM598.74 64.5651C598.74 62.8834 598.28 61.525 597.359 60.4901C596.57 59.3258 595.057 58.7436 592.821 58.7436L578.418 58.7436L578.418 120.84L592.821 120.84C594.531 120.84 595.912 120.452 596.965 119.676C598.148 118.77 598.74 117.218 598.74 115.018L598.74 64.5651Z" stroke="white" stroke-width="2" mask="url(#path-1-outside-1_602_773)"/>
<path d="M677.811 43.9957L677.811 1.11047L693.003 1.11047L693.003 135.782L677.811 135.782L677.811 58.9377L654.332 58.9377L654.332 135.782L639.14 135.782L639.14 1.11047L654.332 1.11047L654.332 43.9957L677.811 43.9957Z" stroke="white" stroke-width="2" mask="url(#path-1-outside-1_602_773)"/>
<path d="M750.889 0.999994C754.703 0.999994 757.926 1.58216 760.557 2.74647C763.319 3.78141 765.489 5.26913 767.067 7.20963C768.777 9.02078 770.027 11.22 770.816 13.8074C771.605 16.2654 772 18.9174 772 21.7635L772 117.237C772 120.083 771.605 122.799 770.816 125.387C770.027 127.845 768.777 130.044 767.067 131.984C765.489 133.796 763.319 135.283 760.557 136.448C757.926 137.483 754.703 138 750.889 138L739.248 138C735.434 138 732.146 137.483 729.383 136.448C726.753 135.283 724.582 133.796 722.872 131.984C721.294 130.044 720.11 127.845 719.321 125.387C718.532 122.799 718.137 120.083 718.137 117.237L718.137 21.7635C718.137 18.9174 718.532 16.2654 719.321 13.8074C720.11 11.22 721.294 9.02078 722.872 7.20963C724.582 5.26913 726.753 3.78141 729.383 2.74647C732.146 1.58216 735.434 0.999993 739.248 0.999994L750.889 0.999994ZM750.889 123.058C752.993 123.058 754.506 122.476 755.427 121.312C756.348 120.147 756.808 118.789 756.808 117.237L756.808 21.7635C756.808 20.2111 756.348 18.8527 755.427 17.6884C754.506 16.5241 752.993 15.9419 750.889 15.9419L739.248 15.9419C737.012 15.9419 735.434 16.5241 734.513 17.6884C733.724 18.8527 733.329 20.2111 733.329 21.7635L733.329 117.237C733.329 118.789 733.724 120.147 734.513 121.312C735.434 122.476 737.012 123.058 739.248 123.058L750.889 123.058Z" stroke="white" stroke-width="2" mask="url(#path-1-outside-1_602_773)"/>
</g>
<defs>
<filter id="filter0_b_602_773" x="-10" y="-10" width="793" height="159" filterUnits="userSpaceOnUse" color-interpolation-filters="sRGB">
<feFlood flood-opacity="0" result="BackgroundImageFix"/>
<feGaussianBlur in="BackgroundImageFix" stdDeviation="5"/>
<feComposite in2="SourceAlpha" operator="in" result="effect1_backgroundBlur_602_773"/>
<feBlend mode="normal" in="SourceGraphic" in2="effect1_backgroundBlur_602_773" result="shape"/>
</filter>
</defs>
</svg>
