<svg width="250" height="569" viewBox="0 0 250 569" fill="none" xmlns="http://www.w3.org/2000/svg">
<g opacity="0.7">
<path d="M35.5036 268.638L29.4728 215.239H-25.6088L-32.0417 268.638H-63L-31.2376 -10H34.6995L66.864 268.638H35.5036ZM-22.3924 187.134H26.2564L6.95768 20.9151H-3.49577L-22.3924 187.134Z" fill="#CCE4F3" fill-opacity="0.2"/>
<path d="M209.204 -10V268.638H178.246V20.9151H142.865L133.618 230.094C133.082 242.942 130.267 252.578 125.175 259.002C120.35 265.426 111.505 268.638 98.6389 268.638H81.7525V237.723H94.6183C97.8348 237.723 99.845 237.321 100.649 236.518C101.721 235.447 102.391 233.306 102.659 230.094L113.113 -10H209.204Z" fill="#CCE4F3" fill-opacity="0.2"/>
<path d="M86.535 284.544C94.3081 284.544 100.875 285.749 106.236 288.158C111.865 290.299 116.287 293.377 119.504 297.392C122.988 301.139 125.534 305.69 127.143 311.043C128.751 316.129 129.555 321.616 129.555 327.504V525.04C129.555 530.929 128.751 536.549 127.143 541.903C125.534 546.988 122.988 551.539 119.504 555.554C116.287 559.301 111.865 562.379 106.236 564.788C100.875 566.929 94.3081 568 86.535 568H62.8138C55.0407 568 48.3398 566.929 42.711 564.788C37.3503 562.379 32.9276 559.301 29.4432 555.554C26.2267 551.539 23.8144 546.988 22.2062 541.903C20.5979 536.549 19.7938 530.929 19.7938 525.04V327.504C19.7938 321.616 20.5979 316.129 22.2062 311.043C23.8144 305.69 26.2267 301.139 29.4432 297.392C32.9276 293.377 37.3503 290.299 42.711 288.158C48.3398 285.749 55.0407 284.544 62.8138 284.544H86.535ZM86.535 537.085C90.8236 537.085 93.9061 535.88 95.7823 533.471C97.6586 531.062 98.5967 528.252 98.5967 525.04V327.504C98.5967 324.292 97.6586 321.482 95.7823 319.073C93.9061 316.664 90.8236 315.459 86.535 315.459H62.8138C58.2571 315.459 55.0407 316.664 53.1644 319.073C51.5562 321.482 50.7521 324.292 50.7521 327.504V525.04C50.7521 528.252 51.5562 531.062 53.1644 533.471C55.0407 535.88 58.2571 537.085 62.8138 537.085H86.535Z" fill="#CCE4F3" fill-opacity="0.2"/>
<path d="M205.98 283.741C213.753 283.741 220.32 284.946 225.681 287.355C231.31 289.496 235.732 292.574 238.949 296.589C242.433 300.336 244.979 304.887 246.588 310.24C248.196 315.326 249 320.813 249 326.701V525.04C249 530.929 248.196 536.549 246.588 541.903C244.979 546.988 242.433 551.539 238.949 555.554C235.732 559.301 231.31 562.379 225.681 564.788C220.32 566.929 213.753 568 205.98 568H186.681C178.908 568 172.207 566.929 166.579 564.788C161.218 562.379 156.795 559.301 153.311 555.554C150.094 551.539 147.682 546.988 146.074 541.903C144.466 536.549 143.661 530.929 143.661 525.04V463.21H174.62V525.04C174.62 528.252 175.558 531.062 177.434 533.471C179.31 535.88 182.393 537.085 186.681 537.085H205.578C210.135 537.085 213.351 535.88 215.227 533.471C217.104 531.062 218.042 528.252 218.042 525.04V406.599H183.063V375.282H218.042V326.701C218.042 323.489 217.104 320.679 215.227 318.27C213.351 315.861 210.269 314.656 205.98 314.656H186.681C182.393 314.656 179.31 315.861 177.434 318.27C175.558 320.679 174.62 323.489 174.62 326.701V344.769H143.661V326.701C143.661 320.813 144.466 315.326 146.074 310.24C147.682 304.887 150.094 300.336 153.311 296.589C156.795 292.574 161.218 289.496 166.579 287.355C172.207 284.946 178.908 283.741 186.681 283.741H205.98Z" fill="#CCE4F3" fill-opacity="0.2"/>
<path d="M35.0068 268.694L35.0569 269.138H35.5036H66.864H67.425L67.3607 268.58L35.1962 -10.0573L35.1451 -10.5H34.6995H-31.2376H-31.6838L-31.7344 -10.0566L-63.4968 268.581L-63.5602 269.138H-63H-32.0417H-31.5983L-31.5453 268.698L-25.1655 215.739H29.0261L35.0068 268.694ZM209.704 -10V-10.5H209.204H113.113H112.634L112.613 -10.0217L102.16 230.063C102.028 231.642 101.798 232.938 101.479 233.96C101.157 234.988 100.754 235.707 100.296 236.164C100 236.46 99.4163 236.736 98.4404 236.931C97.4803 237.123 96.21 237.223 94.6183 237.223H81.7525H81.2525V237.723V268.638V269.138H81.7525H98.6389C111.563 269.138 120.605 265.914 125.57 259.307C130.754 252.766 133.579 243.009 134.117 230.115L143.343 21.4151H177.746V268.638V269.138H178.246H209.204H209.704V268.638V-10ZM127.619 542.054L127.622 542.047C129.244 536.644 130.055 530.975 130.055 525.04V327.504C130.055 321.571 129.245 316.034 127.62 310.895C125.994 305.484 123.416 300.87 119.882 297.065C116.605 292.98 112.112 289.86 106.427 287.696C100.987 285.254 94.3506 284.044 86.535 284.044H62.8138C54.9929 284.044 48.2236 285.256 42.5193 287.696C37.0938 289.864 32.6053 292.986 29.0655 297.064L29.0638 297.066C25.7968 300.873 23.354 305.486 21.7283 310.896C20.1039 316.034 19.2938 321.571 19.2938 327.504V525.04C19.2938 530.975 20.1043 536.644 21.7272 542.047L21.7294 542.054C23.3556 547.196 25.7965 551.801 29.0529 555.866L29.0645 555.881L29.077 555.894C32.6132 559.697 37.0934 562.812 42.5061 565.244L42.5195 565.25L42.5332 565.255C48.2326 567.423 54.9967 568.5 62.8138 568.5H86.535C94.351 568.5 100.985 567.424 106.421 565.252L106.433 565.248C112.115 562.816 116.606 559.697 119.883 555.879C123.412 551.813 125.991 547.203 127.619 542.054ZM247.064 542.054L247.066 542.047C248.689 536.644 249.5 530.975 249.5 525.04V326.701C249.5 320.768 248.69 315.23 247.065 310.091C245.439 304.68 242.861 300.067 239.327 296.262C236.05 292.177 231.557 289.058 225.872 286.893C220.432 284.451 213.796 283.241 205.98 283.241H186.681C178.86 283.241 172.091 284.453 166.387 286.893C160.961 289.061 156.473 292.183 152.933 296.261L152.931 296.263C149.664 300.069 147.222 304.683 145.596 310.092C143.972 315.231 143.161 320.768 143.161 326.701V344.769V345.269H143.661H174.62H175.12V344.769V326.701C175.12 323.594 176.024 320.893 177.829 318.577C179.576 316.334 182.481 315.156 186.681 315.156H205.98C210.18 315.156 213.086 316.334 214.833 318.577C216.637 320.893 217.542 323.594 217.542 326.701V374.782H183.063H182.563V375.282V406.599V407.099H183.063H217.542V525.04C217.542 528.147 216.637 530.848 214.833 533.164C213.091 535.401 210.059 536.585 205.578 536.585H186.681C182.481 536.585 179.576 535.408 177.829 533.164C176.024 530.848 175.12 528.147 175.12 525.04V463.21V462.71H174.62H143.661H143.161V463.21V525.04C143.161 530.975 143.972 536.644 145.595 542.047L145.597 542.054C147.223 547.196 149.664 551.801 152.92 555.866L152.932 555.881L152.945 555.894C156.481 559.697 160.961 562.812 166.374 565.244L166.387 565.25L166.401 565.255C172.1 567.423 178.864 568.5 186.681 568.5H205.98C213.796 568.5 220.43 567.424 225.866 565.252L225.877 565.248C231.56 562.816 236.051 559.697 239.328 555.879C242.856 551.813 245.436 547.203 247.064 542.054ZM25.6949 186.634H-21.8323L-3.0494 21.4151H6.51237L25.6949 186.634ZM95.3879 533.164C93.6405 535.408 90.7354 536.585 86.535 536.585H62.8138C58.3424 536.585 55.3136 535.406 53.5699 533.178C52.0293 530.864 51.2521 528.157 51.2521 525.04V327.504C51.2521 324.387 52.0294 321.68 53.57 319.366C55.3138 317.139 58.3425 315.959 62.8138 315.959H86.535C90.7354 315.959 93.6405 317.137 95.3879 319.38C97.192 321.697 98.0967 324.397 98.0967 327.504V525.04C98.0967 528.147 97.192 530.848 95.3879 533.164Z" stroke="white" stroke-opacity="0.6"/>
</g>
</svg>
