<svg width="250" height="560" viewBox="0 0 250 560" fill="none" xmlns="http://www.w3.org/2000/svg">
<g opacity="0.7">
<path d="M35.5036 259.638L29.4728 206.239H-25.6088L-32.0417 259.638H-63L-31.2376 -19H34.6995L66.864 259.638H35.5036ZM-22.3924 178.134H26.2564L6.95768 11.9151H-3.49577L-22.3924 178.134Z" fill="#DDF3CC" fill-opacity="0.2"/>
<path d="M209.204 -19V259.638H178.246V11.9151H142.865L133.618 221.094C133.082 233.942 130.267 243.578 125.175 250.002C120.35 256.426 111.505 259.638 98.6389 259.638H81.7525V228.723H94.6183C97.8348 228.723 99.845 228.321 100.649 227.518C101.721 226.447 102.391 224.306 102.659 221.094L113.113 -19H209.204Z" fill="#DDF3CC" fill-opacity="0.2"/>
<path d="M86.535 275.544C94.3081 275.544 100.875 276.749 106.236 279.158C111.865 281.299 116.287 284.377 119.504 288.392C122.988 292.139 125.534 296.69 127.143 302.043C128.751 307.129 129.555 312.616 129.555 318.504V516.04C129.555 521.929 128.751 527.549 127.143 532.903C125.534 537.988 122.988 542.539 119.504 546.554C116.287 550.301 111.865 553.379 106.236 555.788C100.875 557.929 94.3081 559 86.535 559H62.8138C55.0407 559 48.3398 557.929 42.711 555.788C37.3503 553.379 32.9276 550.301 29.4432 546.554C26.2267 542.539 23.8144 537.988 22.2062 532.903C20.5979 527.549 19.7938 521.929 19.7938 516.04V318.504C19.7938 312.616 20.5979 307.129 22.2062 302.043C23.8144 296.69 26.2267 292.139 29.4432 288.392C32.9276 284.377 37.3503 281.299 42.711 279.158C48.3398 276.749 55.0407 275.544 62.8138 275.544H86.535ZM86.535 528.085C90.8236 528.085 93.9061 526.88 95.7823 524.471C97.6586 522.062 98.5967 519.252 98.5967 516.04V318.504C98.5967 315.292 97.6586 312.482 95.7823 310.073C93.9061 307.664 90.8236 306.459 86.535 306.459H62.8138C58.2571 306.459 55.0407 307.664 53.1644 310.073C51.5562 312.482 50.7521 315.292 50.7521 318.504V516.04C50.7521 519.252 51.5562 522.062 53.1644 524.471C55.0407 526.88 58.2571 528.085 62.8138 528.085H86.535Z" fill="#DDF3CC" fill-opacity="0.2"/>
<path d="M205.98 274.741C213.753 274.741 220.32 275.946 225.681 278.355C231.31 280.496 235.732 283.574 238.949 287.589C242.433 291.336 244.979 295.887 246.588 301.24C248.196 306.326 249 311.813 249 317.701V516.04C249 521.929 248.196 527.549 246.588 532.903C244.979 537.988 242.433 542.539 238.949 546.554C235.732 550.301 231.31 553.379 225.681 555.788C220.32 557.929 213.753 559 205.98 559H186.681C178.908 559 172.207 557.929 166.579 555.788C161.218 553.379 156.795 550.301 153.311 546.554C150.094 542.539 147.682 537.988 146.074 532.903C144.466 527.549 143.661 521.929 143.661 516.04V454.21H174.62V516.04C174.62 519.252 175.558 522.062 177.434 524.471C179.31 526.88 182.393 528.085 186.681 528.085H205.578C210.135 528.085 213.351 526.88 215.227 524.471C217.104 522.062 218.042 519.252 218.042 516.04V397.599H183.063V366.282H218.042V317.701C218.042 314.489 217.104 311.679 215.227 309.27C213.351 306.861 210.269 305.656 205.98 305.656H186.681C182.393 305.656 179.31 306.861 177.434 309.27C175.558 311.679 174.62 314.489 174.62 317.701V335.769H143.661V317.701C143.661 311.813 144.466 306.326 146.074 301.24C147.682 295.887 150.094 291.336 153.311 287.589C156.795 283.574 161.218 280.496 166.579 278.355C172.207 275.946 178.908 274.741 186.681 274.741H205.98Z" fill="#DDF3CC" fill-opacity="0.2"/>
<path d="M35.0068 259.694L35.0569 260.138H35.5036H66.864H67.425L67.3607 259.58L35.1962 -19.0573L35.1451 -19.5H34.6995H-31.2376H-31.6838L-31.7344 -19.0566L-63.4968 259.581L-63.5602 260.138H-63H-32.0417H-31.5983L-31.5453 259.698L-25.1655 206.739H29.0261L35.0068 259.694ZM209.704 -19V-19.5H209.204H113.113H112.634L112.613 -19.0217L102.16 221.063C102.028 222.642 101.798 223.938 101.479 224.96C101.157 225.988 100.754 226.707 100.296 227.164C100 227.46 99.4163 227.736 98.4404 227.931C97.4803 228.123 96.21 228.223 94.6183 228.223H81.7525H81.2525V228.723V259.638V260.138H81.7525H98.6389C111.563 260.138 120.605 256.914 125.57 250.307C130.754 243.766 133.579 234.009 134.117 221.115L143.343 12.4151H177.746V259.638V260.138H178.246H209.204H209.704V259.638V-19ZM127.619 533.054L127.622 533.047C129.244 527.644 130.055 521.975 130.055 516.04V318.504C130.055 312.571 129.245 307.034 127.62 301.895C125.994 296.484 123.416 291.87 119.882 288.065C116.605 283.98 112.112 280.86 106.427 278.696C100.987 276.254 94.3506 275.044 86.535 275.044H62.8138C54.9929 275.044 48.2236 276.256 42.5193 278.696C37.0938 280.864 32.6053 283.986 29.0655 288.064L29.0638 288.066C25.7968 291.873 23.354 296.486 21.7283 301.896C20.1039 307.034 19.2938 312.571 19.2938 318.504V516.04C19.2938 521.975 20.1043 527.644 21.7272 533.047L21.7294 533.054C23.3556 538.196 25.7965 542.801 29.0529 546.866L29.0645 546.881L29.077 546.894C32.6132 550.697 37.0934 553.812 42.5061 556.244L42.5195 556.25L42.5332 556.255C48.2326 558.423 54.9967 559.5 62.8138 559.5H86.535C94.351 559.5 100.985 558.424 106.421 556.252L106.433 556.248C112.115 553.816 116.606 550.697 119.883 546.879C123.412 542.813 125.991 538.203 127.619 533.054ZM247.064 533.054L247.066 533.047C248.689 527.644 249.5 521.975 249.5 516.04V317.701C249.5 311.768 248.69 306.23 247.065 301.091C245.439 295.68 242.861 291.067 239.327 287.262C236.05 283.177 231.557 280.058 225.872 277.893C220.432 275.451 213.796 274.241 205.98 274.241H186.681C178.86 274.241 172.091 275.453 166.387 277.893C160.961 280.061 156.473 283.183 152.933 287.261L152.931 287.263C149.664 291.069 147.222 295.683 145.596 301.092C143.972 306.231 143.161 311.768 143.161 317.701V335.769V336.269H143.661H174.62H175.12V335.769V317.701C175.12 314.594 176.024 311.893 177.829 309.577C179.576 307.334 182.481 306.156 186.681 306.156H205.98C210.18 306.156 213.086 307.334 214.833 309.577C216.637 311.893 217.542 314.594 217.542 317.701V365.782H183.063H182.563V366.282V397.599V398.099H183.063H217.542V516.04C217.542 519.147 216.637 521.848 214.833 524.164C213.091 526.401 210.059 527.585 205.578 527.585H186.681C182.481 527.585 179.576 526.408 177.829 524.164C176.024 521.848 175.12 519.147 175.12 516.04V454.21V453.71H174.62H143.661H143.161V454.21V516.04C143.161 521.975 143.972 527.644 145.595 533.047L145.597 533.054C147.223 538.196 149.664 542.801 152.92 546.866L152.932 546.881L152.945 546.894C156.481 550.697 160.961 553.812 166.374 556.244L166.387 556.25L166.401 556.255C172.1 558.423 178.864 559.5 186.681 559.5H205.98C213.796 559.5 220.43 558.424 225.866 556.252L225.877 556.248C231.56 553.816 236.051 550.697 239.328 546.879C242.856 542.813 245.436 538.203 247.064 533.054ZM25.6949 177.634H-21.8323L-3.0494 12.4151H6.51237L25.6949 177.634ZM95.3879 524.164C93.6405 526.408 90.7354 527.585 86.535 527.585H62.8138C58.3424 527.585 55.3136 526.406 53.5699 524.178C52.0293 521.864 51.2521 519.157 51.2521 516.04V318.504C51.2521 315.387 52.0294 312.68 53.57 310.366C55.3138 308.139 58.3425 306.959 62.8138 306.959H86.535C90.7354 306.959 93.6405 308.137 95.3879 310.38C97.192 312.697 98.0967 315.397 98.0967 318.504V516.04C98.0967 519.147 97.192 521.848 95.3879 524.164Z" stroke="white" stroke-opacity="0.6"/>
</g>
</svg>
