<svg width="6" height="1004" viewBox="0 0 6 1004" fill="none" xmlns="http://www.w3.org/2000/svg">
<path d="M0.333333 3C0.333333 4.47276 1.52724 5.66667 3 5.66667C4.47276 5.66667 5.66667 4.47276 5.66667 3C5.66667 1.52724 4.47276 0.333333 3 0.333333C1.52724 0.333333 0.333333 1.52724 0.333333 3ZM0.333289 1001C0.333289 1002.47 1.5272 1003.67 2.99996 1003.67C4.47272 1003.67 5.66662 1002.47 5.66662 1001C5.66662 999.527 4.47272 998.333 2.99996 998.333C1.5272 998.333 0.33329 999.527 0.333289 1001ZM2.5 3L2.49996 1001L3.49996 1001L3.5 3L2.5 3Z" fill="#87C3E5"/>
</svg>
