<svg display="none" xmlns="http://www.w3.org/2000/svg">
	<symbol id="basket" viewBox="0 0 33 32">
		<path
			d="M9.85028 28.1535C9.28761 28.1535 8.81339 27.9611 8.42762 27.5762C8.04273 27.1904 7.85028 26.7162 7.85028 26.1535C7.85028 25.5917 8.04273 25.1179 8.42762 24.7322C8.81339 24.3464 9.28761 24.1535 9.85028 24.1535C10.4121 24.1535 10.8858 24.3464 11.2716 24.7322C11.6574 25.1179 11.8503 25.5917 11.8503 26.1535C11.8503 26.7162 11.6574 27.1904 11.2716 27.5762C10.8858 27.9611 10.4121 28.1535 9.85028 28.1535ZM22.3623 28.1535C21.8005 28.1535 21.3267 27.9611 20.9409 27.5762C20.5552 27.1904 20.3623 26.7162 20.3623 26.1535C20.3623 25.5917 20.5552 25.1179 20.9409 24.7322C21.3267 24.3464 21.8005 24.1535 22.3623 24.1535C22.9249 24.1535 23.3992 24.3464 23.7849 24.7322C24.1698 25.1179 24.3623 25.5917 24.3623 26.1535C24.3623 26.7162 24.1698 27.1904 23.7849 27.5762C23.3992 27.9611 22.9249 28.1535 22.3623 28.1535ZM7.94762 7.3335L11.5063 14.8202H20.8396L24.9423 7.3335H7.94762ZM7.29562 6.00016H27.1929L21.6369 16.1535H10.9063L8.72228 20.1535H24.3623V21.4868H6.42628L10.0863 14.9535L5.18362 4.66683H2.77295V3.3335H6.02895L7.29562 6.00016Z" />
	</symbol>

	<symbol id="ok" viewBox="0 0 33 32">
		<path
			d="M16.6679 16.1973C21.1319 16.1973 24.7498 12.5786 24.7498 8.11388C24.7497 3.64919 21.1318 0.03125 16.6679 0.03125C12.2024 0.03125 8.58298 3.64919 8.58298 8.11388C8.58292 12.5786 12.2024 16.1973 16.6679 16.1973ZM16.6679 4.13725C18.8636 4.13725 20.6437 5.91738 20.6437 8.11381C20.6437 10.3103 18.8636 12.0904 16.6679 12.0904C14.4699 12.0904 12.6905 10.3103 12.6905 8.11381C12.6905 5.91738 14.4699 4.13725 16.6679 4.13725ZM25.984 17.1836C25.5287 16.2667 24.2647 15.5041 22.5844 16.8273C20.313 18.616 16.6679 18.616 16.6679 18.616C16.6679 18.616 13.0203 18.616 10.749 16.8273C9.06942 15.5041 7.80629 16.2667 7.35017 17.1836C6.55329 18.7813 7.45229 19.554 9.48117 20.8562C11.2137 21.9689 13.595 22.3844 15.1319 22.5396L13.8484 23.8231C12.041 25.6296 10.2968 27.3754 9.08585 28.5864C8.36148 29.3099 8.36148 30.4835 9.08585 31.2071L9.30335 31.4262C10.0277 32.1498 11.2005 32.1498 11.9248 31.4262L16.6874 26.6628C18.4963 28.4703 20.2405 30.2153 21.4514 31.4262C22.1758 32.1498 23.3485 32.1498 24.0729 31.4262L24.2904 31.2071C25.0147 30.4827 25.0147 29.3099 24.2904 28.5856L19.5278 23.8231L18.2413 22.5358C19.7797 22.3767 22.1344 21.9595 23.8529 20.8563C25.8819 19.5539 26.7794 18.7813 25.984 17.1836Z" />
	</symbol>

	<symbol id="vk" viewBox="0 0 33 32">
		<path
			d="M29.339 24.5081H26.2963C25.1457 24.5081 24.799 23.5761 22.7363 21.5121C20.9337 19.7748 20.1723 19.5588 19.7163 19.5588C19.0857 19.5588 18.9137 19.7321 18.9137 20.6001V23.3361C18.9137 24.0761 18.6737 24.5095 16.7403 24.5095C14.8647 24.3835 13.0459 23.8137 11.4336 22.847C9.82136 21.8803 8.46182 20.5445 7.46699 18.9495C5.10484 16.0095 3.46127 12.5589 2.66699 8.87212C2.66699 8.41612 2.84033 8.00279 3.70966 8.00279H6.74966C7.53099 8.00279 7.81233 8.35079 8.11899 9.15479C9.59499 13.4988 12.1137 17.2775 13.1363 17.2775C13.5283 17.2775 13.699 17.1041 13.699 16.1268V11.6521C13.5697 9.61079 12.4857 9.43879 12.4857 8.70012C12.4994 8.50524 12.5885 8.32338 12.7342 8.19318C12.8798 8.06297 13.0705 7.99467 13.2657 8.00279H18.0443C18.6977 8.00279 18.9137 8.32812 18.9137 9.10945V15.1495C18.9137 15.8015 19.1937 16.0175 19.391 16.0175C19.783 16.0175 20.0843 15.8015 20.803 15.0841C22.3435 13.2054 23.602 11.1123 24.539 8.87079C24.6349 8.60166 24.8162 8.37128 25.0553 8.21481C25.2943 8.05833 25.578 7.98434 25.863 8.00412H28.9043C29.8163 8.00412 30.0097 8.46012 29.8163 9.11079C28.7102 11.5887 27.3414 13.9408 25.7337 16.1268C25.4057 16.6268 25.275 16.8868 25.7337 17.4735C26.035 17.9295 27.1017 18.8201 27.8177 19.6668C28.8603 20.7068 29.7257 21.9095 30.3803 23.2268C30.6417 24.0748 30.207 24.5081 29.339 24.5081Z" />
	</symbol>

	<symbol id="phone" viewBox="0 0 32 32">
		<path
			d="M19.3342 20.2139L21.0564 18.491C21.2883 18.2618 21.5818 18.1049 21.9012 18.0394C22.2205 17.9739 22.552 18.0025 22.8555 18.1218L24.9544 18.9602C25.261 19.0847 25.5239 19.2972 25.71 19.5709C25.8961 19.8447 25.997 20.1674 26 20.4985V24.3442C25.9982 24.5694 25.9509 24.7919 25.8609 24.9983C25.7709 25.2047 25.6401 25.3908 25.4763 25.5453C25.3125 25.6998 25.1192 25.8195 24.9079 25.8973C24.6967 25.9751 24.4719 26.0093 24.2471 25.9979C9.5392 25.0826 6.57149 12.6224 6.01024 7.85368C5.98419 7.6195 6.00799 7.38246 6.08009 7.15814C6.15218 6.93383 6.27094 6.72733 6.42854 6.55223C6.58614 6.37713 6.77901 6.23739 6.99447 6.14222C7.20993 6.04704 7.44309 5.99859 7.67862 6.00003H11.3921C11.7235 6.00101 12.047 6.10115 12.321 6.28756C12.595 6.47397 12.807 6.73814 12.9298 7.04607L13.7678 9.14584C13.891 9.44817 13.9224 9.78011 13.8582 10.1002C13.7939 10.4203 13.6368 10.7144 13.4065 10.9456L11.6843 12.6685C11.6843 12.6685 12.6761 19.3832 19.3342 20.2139Z" />
	</symbol>

	<symbol id="mail" viewBox="0 0 32 32">
		<path
			d="M25.25 5.99996H7.75C6.75544 5.99996 5.80161 6.39505 5.09835 7.09831C4.39509 7.80157 4 8.7554 4 9.74996V22.25C4 23.2445 4.39509 24.1983 5.09835 24.9016C5.80161 25.6049 6.75544 26 7.75 26H25.25C26.2446 26 27.1984 25.6049 27.9016 24.9016C28.6049 24.1983 29 23.2445 29 22.25V9.74996C29 8.7554 28.6049 7.80157 27.9016 7.09831C27.1984 6.39505 26.2446 5.99996 25.25 5.99996ZM25.25 8.49996L17.125 14.0875C16.935 14.1972 16.7194 14.2549 16.5 14.2549C16.2806 14.2549 16.065 14.1972 15.875 14.0875L7.75 8.49996H25.25Z" />
	</symbol>

	<symbol id="arrow-left" viewBox="0 0 54 54">
		<path
			d="M14.6769 28.125L23.0806 36.5288C23.2996 36.7478 23.4144 37.0058 23.4249 37.3028C23.4339 37.5998 23.3191 37.872 23.0806 38.1195C22.8316 38.3685 22.5639 38.4953 22.2774 38.4998C21.9909 38.5028 21.7231 38.3805 21.4741 38.133L11.6146 28.2713C11.2501 27.9083 11.0679 27.4845 11.0679 27C11.0679 26.5155 11.2501 26.0918 11.6146 25.7288L21.4741 15.867C21.6931 15.648 21.9534 15.5333 22.2549 15.5228C22.5564 15.5123 22.8316 15.6315 23.0806 15.8805C23.3206 16.128 23.4421 16.3935 23.4451 16.677C23.4496 16.959 23.3281 17.2238 23.0806 17.4713L14.6769 25.875H42.5319C42.8529 25.875 43.1214 25.9823 43.3374 26.1968C43.5519 26.4128 43.6591 26.6805 43.6591 27C43.6591 27.3195 43.5519 27.5873 43.3374 27.8033C43.1214 28.0178 42.8536 28.125 42.5341 28.125H14.6791H14.6769Z" />
	</symbol>

	<symbol id="arrow-right" viewBox="0 0 54 54">
		<path
			d="M38.4142 28.125H12.375C12.0555 28.125 11.7878 28.0177 11.5718 27.8032C11.3573 27.5872 11.25 27.3195 11.25 27C11.25 26.6805 11.3573 26.4127 11.5718 26.1967C11.7878 25.9822 12.0555 25.875 12.375 25.875H38.4142L30.0105 17.4712C29.7915 17.2522 29.6775 16.9942 29.6685 16.6972C29.658 16.4002 29.772 16.128 30.0105 15.8805C30.2595 15.6315 30.5272 15.5047 30.8137 15.5002C31.1017 15.4972 31.3695 15.6195 31.617 15.867L41.4787 25.7287C41.6737 25.9237 41.811 26.124 41.8905 26.3295C41.97 26.5335 42.0097 26.757 42.0097 27C42.0097 27.243 41.97 27.4665 41.8905 27.6705C41.811 27.876 41.6737 28.0762 41.4787 28.2712L31.617 38.133C31.398 38.352 31.1377 38.4667 30.8362 38.4772C30.5347 38.4877 30.2595 38.3685 30.0105 38.1195C29.7705 37.872 29.649 37.6065 29.646 37.323C29.6415 37.041 29.763 36.7762 30.0105 36.5287L38.4142 28.125Z" />
	</symbol>

	<symbol id="burger" viewBox="0 0 32 32" fill="none">
		<path
			d="M5.33337 23.0267V21.6934H26.6667V23.0267H5.33337ZM5.33337 16.6667V15.3334H26.6667V16.6667H5.33337ZM5.33337 10.3067V8.97339H26.6667V10.3067H5.33337Z"/>
	</symbol>

</svg>